PathFileType	4	(X/Y/Z)	C:\Users\dbl\Desktop\LZH\BX\bx_y_0_901.trc
DataRate	CameraRate	NumFrames	NumMarkers	Units	OrigDataRate	OrigDataStartFrame	OrigNumFrames
50.00	50.00	      5	43	mm	50.00	306	      1220
Frame#	Time	Top.Head			R.Acromium			L.Acromium			Sternum			R.ASIS			L.ASIS			V.Sacral			R.Thigh.Upper			R.Thigh.Front			R.Thigh.Rear			R.Knee.Lat			R.Knee.Med			R.Shank.Upper			R.Shank.Front			R.Shank.Rear			R.Ankle.Lat			R.Midfoot.Lat			R.Toe.Lat			R.Toe.Tip			R.Toe.Med			R.Ankle.Med			R.Midfoot.Sup			R.Heel			L.Thigh.Upper			L.Thigh.Front			L.Thigh.Rear			L.Knee.Lat			L.Knee.Med			L.Shank.Upper			L.Shank.Front			L.Shank.Rear			L.Ankle.Lat			L.Midfoot.Lat			L.Toe.Lat			L.Toe.Tip			L.Toe.Med			L.Ankle.Med			L.Midfoot.Sup			L.Heel			origin1 front left			origin2 front right			origin 3 back right			origin 4 back leftt			
		X1	Y1	Z1	X2	Y2	Z2	X3	Y3	Z3	X4	Y4	Z4	X5	Y5	Z5	X6	Y6	Z6	X7	Y7	Z7	X8	Y8	Z8	X9	Y9	Z9	X10	Y10	Z10	X11	Y11	Z11	X12	Y12	Z12	X13	Y13	Z13	X14	Y14	Z14	X15	Y15	Z15	X16	Y16	Z16	X17	Y17	Z17	X18	Y18	Z18	X19	Y19	Z19	X20	Y20	Z20	X21	Y21	Z21	X22	Y22	Z22	X23	Y23	Z23	X24	Y24	Z24	X25	Y25	Z25	X26	Y26	Z26	X27	Y27	Z27	X28	Y28	Z28	X29	Y29	Z29	X30	Y30	Z30	X31	Y31	Z31	X32	Y32	Z32	X33	Y33	Z33	X34	Y34	Z34	X35	Y35	Z35	X36	Y36	Z36	X37	Y37	Z37	X38	Y38	Z38	X39	Y39	Z39	X40	Y40	Z40	X41	Y41	Z41	X42	Y42	Z42	X43	Y43	Z43	

306	6.100	-624.40979	234.79747	1830.63586	-579.45404	45.33841	1522.71277	-570.55414	442.61032	1521.81274	-509.88733	253.81195	1381.26111	-569.37488	145.53455	1058.41089	-569.47046	373.69327	1062.05298	-765.71942	243.29721	1056.71960	-602.82977	89.75948	895.70081	-555.41602	147.22548	844.25128	-652.55182	87.31560	750.91522	-677.05591	116.76933	597.78583	-648.91699	222.31740	557.67053	-703.12439	117.09969	540.25989	-619.29559	161.39865	544.24536	-737.04266	120.95713	470.88205	-689.62109	142.82977	212.96100	-617.25879	77.35481	165.77982	-572.11444	50.77649	160.39981	-493.60397	93.29012	161.55605	-532.47345	144.27834	165.80818	-635.16949	215.87198	220.57202	-593.00739	188.31262	171.15263	-718.25983	212.41194	170.55251	-603.44403	432.50632	888.18445	-553.16248	374.91879	840.68262	-645.45422	434.38364	751.68311	-680.98065	413.54156	625.89966	-634.83710	313.65732	574.13074	-684.75793	413.33209	561.67047	-627.10059	373.74191	539.65778	-731.14935	415.58258	507.06369	-681.16302	417.59198	214.24329	-585.79718	469.16956	164.08284	-546.83887	480.00418	159.55402	-488.38605	428.31250	168.41867	-525.98749	389.08722	178.78943	-643.66565	329.58429	208.42804	-594.47211	348.82428	171.29926	-732.22260	344.89896	164.08942	-443.88617	448.27579	147.99945	-450.34460	75.72314	143.83107	-806.24750	82.53059	142.62952	-799.16357	457.67929	144.98312	
307	6.120	-631.31824	235.65106	1831.64966	-583.78564	46.09655	1524.41504	-576.01996	443.40350	1522.80322	-512.29236	254.62407	1383.51526	-567.30615	145.88622	1058.31982	-567.64948	374.02066	1062.13928	-763.78705	243.15666	1056.29517	-600.71075	89.67229	895.69592	-553.66608	147.42148	844.18378	-650.91504	87.34264	751.01025	-676.15167	116.61883	597.98499	-648.21564	222.35251	557.93909	-702.37561	116.96159	540.34955	-618.59656	161.31604	544.38953	-736.50549	120.73925	471.16751	-689.70331	142.71442	212.92902	-617.29791	77.34837	165.76778	-572.13080	50.79739	160.38771	-493.68463	93.39733	161.60156	-532.48523	144.27618	165.81940	-635.15631	215.82368	220.57506	-593.17645	188.15503	171.26604	-718.20001	212.40288	170.21204	-601.74939	432.56732	888.04706	-551.35712	374.93988	840.65216	-643.91760	434.33014	751.61481	-679.74500	413.54855	625.91772	-633.68195	313.68259	574.11902	-683.71112	413.35052	561.71368	-626.05780	373.63165	539.61841	-730.14307	415.48438	507.29202	-681.06622	417.57263	214.29085	-585.77350	469.10025	164.07315	-546.82751	479.98849	159.54454	-488.38483	428.33276	168.45325	-525.97046	389.04807	178.76276	-643.68274	329.54163	208.19157	-594.44965	348.77917	171.24075	-732.18701	344.89542	164.06680	-443.91852	448.34030	148.00752	-450.36691	75.73561	143.82410	-806.25549	82.55312	142.64825	-799.18158	457.60681	145.02684	
308	6.140	-637.96100	236.51544	1832.47156	-588.07056	46.81140	1525.99219	-581.17645	444.29828	1523.53735	-514.79999	255.24525	1385.46228	-565.24249	146.02844	1058.34644	-565.68469	374.37415	1062.41992	-761.78088	243.05792	1055.82532	-598.54669	89.62122	895.64178	-551.85065	147.65186	844.06970	-649.13000	87.39911	751.02740	-675.09552	116.54031	598.11011	-647.45239	222.31844	558.07178	-701.48444	116.92389	540.36591	-617.77081	161.29007	544.50824	-735.81427	120.58434	471.39590	-689.73193	142.65039	212.89452	-617.30841	77.36324	165.76466	-572.11566	50.84230	160.37752	-493.74097	93.50394	161.64673	-532.46277	144.29099	165.81696	-635.17340	215.74783	220.53877	-593.32288	187.97606	171.35246	-718.09149	212.42281	169.81749	-599.86090	432.61667	887.96295	-549.51660	374.97083	840.62964	-642.23029	434.32031	751.60052	-678.44690	413.52939	625.99945	-632.48730	313.67010	574.14392	-682.59406	413.37228	561.83069	-624.97754	373.53870	539.56415	-729.17065	415.34918	507.52899	-680.98260	417.45526	214.26324	-585.73950	469.03592	164.05731	-546.82349	479.97272	159.53041	-488.35645	428.31821	168.46523	-525.93762	389.01431	178.72560	-643.65729	329.48157	207.95996	-594.38794	348.75803	171.19153	-732.11298	344.90979	164.04993	-443.93521	448.40756	148.01790	-450.38303	75.77845	143.81450	-806.26038	82.55617	142.67374	-799.20172	457.53976	145.08130	
309	6.160	-644.32758	237.37093	1833.13623	-592.29962	47.50552	1527.42639	-586.03033	445.20157	1524.04810	-517.34210	255.75842	1387.13086	-563.22839	146.02431	1058.44934	-563.60199	374.77078	1062.85107	-759.75348	243.06161	1055.26965	-596.34796	89.65460	895.56940	-549.90552	147.91519	843.95190	-647.12048	87.54747	750.98468	-673.86053	116.53912	598.16388	-646.55341	222.24979	558.11841	-700.42798	116.93029	540.39172	-616.77234	161.31435	544.58685	-734.98950	120.51949	471.59552	-689.69434	142.64287	212.88538	-617.29480	77.38760	165.77307	-572.08496	50.90200	160.39372	-493.76102	93.58604	161.69092	-532.43475	144.32240	165.80704	-635.17676	215.69034	220.50807	-593.36658	187.88148	171.38431	-717.98694	212.44255	169.52921	-597.77332	432.67535	887.96313	-547.64856	375.00320	840.60742	-640.41290	434.27826	751.66211	-677.08160	413.47546	626.14819	-631.23981	313.61145	574.18018	-681.39581	413.33957	561.98590	-623.87762	373.49649	539.48926	-728.19830	415.23975	507.75525	-680.88434	417.30292	214.23183	-585.70032	468.98941	164.06026	-546.82849	479.95926	159.51846	-488.31839	428.28107	168.45981	-525.87067	388.96820	178.68781	-643.57880	329.38052	207.76645	-594.29095	348.74249	171.13559	-732.01190	344.91467	164.02310	-443.94388	448.47028	148.03752	-450.38232	75.82005	143.81316	-806.25757	82.54367	142.70154	-799.21344	457.51111	145.12242	
310	6.180	-650.42706	238.20189	1833.69287	-596.40521	48.18422	1528.70532	-590.62988	445.99600	1524.37439	-519.74011	256.30859	1388.70398	-561.31244	146.00453	1058.65820	-561.49878	375.16467	1063.32715	-757.78247	243.15132	1054.63513	-594.10785	89.76241	895.56757	-547.82452	148.20810	843.93347	-644.85266	87.77913	750.94708	-672.46167	116.60118	598.22778	-645.43903	222.24879	558.23236	-699.22089	116.93050	540.49298	-615.61041	161.37230	544.64740	-734.07153	120.57807	471.83578	-689.61938	142.69395	212.91733	-617.25946	77.41034	165.78265	-572.04132	50.96988	160.45732	-493.74237	93.64489	161.72487	-532.41974	144.36333	165.78528	-635.14838	215.67485	220.49265	-593.32410	187.89420	171.34663	-717.91852	212.45546	169.43289	-595.56378	432.74158	888.04254	-545.70007	375.00781	840.62317	-638.51740	434.12485	751.73364	-675.64587	413.41605	626.32343	-629.93640	313.55081	574.22974	-680.12769	413.20633	562.11646	-622.74622	373.46097	539.39270	-727.19250	415.17276	507.94382	-680.72803	417.14413	214.21097	-585.66119	468.96219	164.08374	-546.83752	479.95691	159.51883	-488.28088	428.22751	168.45078	-525.76117	388.88812	178.64850	-643.45319	329.22076	207.63359	-594.19299	348.70801	171.05267	-731.94073	344.87088	163.98369	-443.96021	448.52286	148.06624	-450.36761	75.83176	143.82449	-806.24426	82.53088	142.72092	-799.22571	457.49573	145.14569	
